<?xml version="1.0" encoding="UTF-8"?>
<!DOCTYPE svg PUBLIC "-//W3C//DTD SVG 1.1//EN" "http://www.w3.org/Graphics/SVG/1.1/DTD/svg11.dtd">
<svg xmlns="http://www.w3.org/2000/svg" version="1.1" width="100px" height="100px" style="shape-rendering:geometricPrecision; text-rendering:geometricPrecision; image-rendering:optimizeQuality; fill-rule:evenodd; clip-rule:evenodd" xmlns:xlink="http://www.w3.org/1999/xlink">
<g><path style="opacity:1" fill="#22262c" d="M 8.5,-0.5 C 8.83333,-0.5 9.16667,-0.5 9.5,-0.5C 9.5,2.5 9.5,5.5 9.5,8.5C 15.8333,8.5 22.1667,8.5 28.5,8.5C 28.5,5.5 28.5,2.5 28.5,-0.5C 28.8333,-0.5 29.1667,-0.5 29.5,-0.5C 29.5,2.5 29.5,5.5 29.5,8.5C 35.8333,8.5 42.1667,8.5 48.5,8.5C 48.5,5.5 48.5,2.5 48.5,-0.5C 48.8333,-0.5 49.1667,-0.5 49.5,-0.5C 49.5,2.5 49.5,5.5 49.5,8.5C 55.8333,8.5 62.1667,8.5 68.5,8.5C 68.5,5.5 68.5,2.5 68.5,-0.5C 68.8333,-0.5 69.1667,-0.5 69.5,-0.5C 69.5,2.5 69.5,5.5 69.5,8.5C 75.8333,8.5 82.1667,8.5 88.5,8.5C 88.5,5.5 88.5,2.5 88.5,-0.5C 88.8333,-0.5 89.1667,-0.5 89.5,-0.5C 89.5,2.5 89.5,5.5 89.5,8.5C 92.8333,8.5 96.1667,8.5 99.5,8.5C 99.5,8.83333 99.5,9.16667 99.5,9.5C 96.1667,9.5 92.8333,9.5 89.5,9.5C 89.5,15.8333 89.5,22.1667 89.5,28.5C 92.8333,28.5 96.1667,28.5 99.5,28.5C 99.5,28.8333 99.5,29.1667 99.5,29.5C 96.1667,29.5 92.8333,29.5 89.5,29.5C 89.5,35.8333 89.5,42.1667 89.5,48.5C 92.8333,48.5 96.1667,48.5 99.5,48.5C 99.5,48.8333 99.5,49.1667 99.5,49.5C 96.1667,49.5 92.8333,49.5 89.5,49.5C 89.5,55.8333 89.5,62.1667 89.5,68.5C 92.8333,68.5 96.1667,68.5 99.5,68.5C 99.5,68.8333 99.5,69.1667 99.5,69.5C 96.1667,69.5 92.8333,69.5 89.5,69.5C 89.5,75.8333 89.5,82.1667 89.5,88.5C 92.8333,88.5 96.1667,88.5 99.5,88.5C 99.5,88.8333 99.5,89.1667 99.5,89.5C 96.1667,89.5 92.8333,89.5 89.5,89.5C 89.5,92.8333 89.5,96.1667 89.5,99.5C 89.1667,99.5 88.8333,99.5 88.5,99.5C 88.5,96.1667 88.5,92.8333 88.5,89.5C 82.1667,89.5 75.8333,89.5 69.5,89.5C 69.5,92.8333 69.5,96.1667 69.5,99.5C 69.1667,99.5 68.8333,99.5 68.5,99.5C 68.5,96.1667 68.5,92.8333 68.5,89.5C 62.1667,89.5 55.8333,89.5 49.5,89.5C 49.5,92.8333 49.5,96.1667 49.5,99.5C 49.1667,99.5 48.8333,99.5 48.5,99.5C 48.5,96.1667 48.5,92.8333 48.5,89.5C 42.1667,89.5 35.8333,89.5 29.5,89.5C 29.5,92.8333 29.5,96.1667 29.5,99.5C 29.1667,99.5 28.8333,99.5 28.5,99.5C 28.5,96.1667 28.5,92.8333 28.5,89.5C 22.1667,89.5 15.8333,89.5 9.5,89.5C 9.5,92.8333 9.5,96.1667 9.5,99.5C 9.16667,99.5 8.83333,99.5 8.5,99.5C 8.5,96.1667 8.5,92.8333 8.5,89.5C 5.5,89.5 2.5,89.5 -0.5,89.5C -0.5,89.1667 -0.5,88.8333 -0.5,88.5C 2.5,88.5 5.5,88.5 8.5,88.5C 8.5,82.1667 8.5,75.8333 8.5,69.5C 5.5,69.5 2.5,69.5 -0.5,69.5C -0.5,69.1667 -0.5,68.8333 -0.5,68.5C 2.5,68.5 5.5,68.5 8.5,68.5C 8.5,62.1667 8.5,55.8333 8.5,49.5C 5.5,49.5 2.5,49.5 -0.5,49.5C -0.5,49.1667 -0.5,48.8333 -0.5,48.5C 2.5,48.5 5.5,48.5 8.5,48.5C 8.5,42.1667 8.5,35.8333 8.5,29.5C 5.5,29.5 2.5,29.5 -0.5,29.5C -0.5,29.1667 -0.5,28.8333 -0.5,28.5C 2.5,28.5 5.5,28.5 8.5,28.5C 8.5,22.1667 8.5,15.8333 8.5,9.5C 5.5,9.5 2.5,9.5 -0.5,9.5C -0.5,9.16667 -0.5,8.83333 -0.5,8.5C 2.5,8.5 5.5,8.5 8.5,8.5C 8.5,5.5 8.5,2.5 8.5,-0.5 Z M 9.5,9.5 C 15.8333,9.5 22.1667,9.5 28.5,9.5C 28.5,15.8333 28.5,22.1667 28.5,28.5C 22.1667,28.5 15.8333,28.5 9.5,28.5C 9.5,22.1667 9.5,15.8333 9.5,9.5 Z M 29.5,9.5 C 35.8333,9.5 42.1667,9.5 48.5,9.5C 48.5,15.8333 48.5,22.1667 48.5,28.5C 42.1667,28.5 35.8333,28.5 29.5,28.5C 29.5,22.1667 29.5,15.8333 29.5,9.5 Z M 49.5,9.5 C 55.8333,9.5 62.1667,9.5 68.5,9.5C 68.5,15.8333 68.5,22.1667 68.5,28.5C 62.1667,28.5 55.8333,28.5 49.5,28.5C 49.5,22.1667 49.5,15.8333 49.5,9.5 Z M 69.5,9.5 C 75.8333,9.5 82.1667,9.5 88.5,9.5C 88.5,15.8333 88.5,22.1667 88.5,28.5C 82.1667,28.5 75.8333,28.5 69.5,28.5C 69.5,22.1667 69.5,15.8333 69.5,9.5 Z M 9.5,29.5 C 15.8333,29.5 22.1667,29.5 28.5,29.5C 28.5,35.8333 28.5,42.1667 28.5,48.5C 22.1667,48.5 15.8333,48.5 9.5,48.5C 9.5,42.1667 9.5,35.8333 9.5,29.5 Z M 29.5,29.5 C 35.8333,29.5 42.1667,29.5 48.5,29.5C 48.5,35.8333 48.5,42.1667 48.5,48.5C 42.1667,48.5 35.8333,48.5 29.5,48.5C 29.5,42.1667 29.5,35.8333 29.5,29.5 Z M 49.5,29.5 C 55.8333,29.5 62.1667,29.5 68.5,29.5C 68.5,35.8333 68.5,42.1667 68.5,48.5C 62.1667,48.5 55.8333,48.5 49.5,48.5C 49.5,42.1667 49.5,35.8333 49.5,29.5 Z M 69.5,29.5 C 75.8333,29.5 82.1667,29.5 88.5,29.5C 88.5,35.8333 88.5,42.1667 88.5,48.5C 82.1667,48.5 75.8333,48.5 69.5,48.5C 69.5,42.1667 69.5,35.8333 69.5,29.5 Z M 9.5,49.5 C 15.8333,49.5 22.1667,49.5 28.5,49.5C 28.5,55.8333 28.5,62.1667 28.5,68.5C 22.1667,68.5 15.8333,68.5 9.5,68.5C 9.5,62.1667 9.5,55.8333 9.5,49.5 Z M 29.5,49.5 C 35.8333,49.5 42.1667,49.5 48.5,49.5C 48.5,55.8333 48.5,62.1667 48.5,68.5C 42.1667,68.5 35.8333,68.5 29.5,68.5C 29.5,62.1667 29.5,55.8333 29.5,49.5 Z M 49.5,49.5 C 55.8333,49.5 62.1667,49.5 68.5,49.5C 68.5,55.8333 68.5,62.1667 68.5,68.5C 62.1667,68.5 55.8333,68.5 49.5,68.5C 49.5,62.1667 49.5,55.8333 49.5,49.5 Z M 69.5,49.5 C 75.8333,49.5 82.1667,49.5 88.5,49.5C 88.5,55.8333 88.5,62.1667 88.5,68.5C 82.1667,68.5 75.8333,68.5 69.5,68.5C 69.5,62.1667 69.5,55.8333 69.5,49.5 Z M 9.5,69.5 C 15.8333,69.5 22.1667,69.5 28.5,69.5C 28.5,75.8333 28.5,82.1667 28.5,88.5C 22.1667,88.5 15.8333,88.5 9.5,88.5C 9.5,82.1667 9.5,75.8333 9.5,69.5 Z M 29.5,69.5 C 35.8333,69.5 42.1667,69.5 48.5,69.5C 48.5,75.8333 48.5,82.1667 48.5,88.5C 42.1667,88.5 35.8333,88.5 29.5,88.5C 29.5,82.1667 29.5,75.8333 29.5,69.5 Z M 49.5,69.5 C 55.8333,69.5 62.1667,69.5 68.5,69.5C 68.5,75.8333 68.5,82.1667 68.5,88.5C 62.1667,88.5 55.8333,88.5 49.5,88.5C 49.5,82.1667 49.5,75.8333 49.5,69.5 Z M 69.5,69.5 C 75.8333,69.5 82.1667,69.5 88.5,69.5C 88.5,75.8333 88.5,82.1667 88.5,88.5C 82.1667,88.5 75.8333,88.5 69.5,88.5C 69.5,82.1667 69.5,75.8333 69.5,69.5 Z"/></g>
</svg>
